<svg width="77" height="32" viewBox="0 0 77 32" fill="none" xmlns="http://www.w3.org/2000/svg">
<rect width="77" height="32" rx="16" fill="#D9D9D9"/>
<rect width="41" height="32" rx="16" fill="black"/>
<path d="M20.5049 10.25C21.8072 10.25 23.0562 10.8031 23.9771 11.7877C24.898 12.7723 25.4154 14.1076 25.4154 15.5C25.4154 16.8924 24.898 18.2277 23.9771 19.2123C23.0562 20.1969 21.8072 20.75 20.5049 20.75C19.2026 20.75 17.9536 20.1969 17.0327 19.2123C16.1118 18.2277 15.5945 16.8924 15.5945 15.5C15.5945 14.1076 16.1118 12.7723 17.0327 11.7877C17.9536 10.8031 19.2026 10.25 20.5049 10.25ZM20.5049 12.35C19.7235 12.35 18.9741 12.6819 18.4216 13.2726C17.869 13.8634 17.5586 14.6646 17.5586 15.5C17.5586 16.3354 17.869 17.1366 18.4216 17.7274C18.9741 18.3181 19.7235 18.65 20.5049 18.65C21.2863 18.65 22.0357 18.3181 22.5882 17.7274C23.1408 17.1366 23.4512 16.3354 23.4512 15.5C23.4512 14.6646 23.1408 13.8634 22.5882 13.2726C22.0357 12.6819 21.2863 12.35 20.5049 12.35ZM20.5049 5L22.8521 8.591C22.1254 8.3075 21.3299 8.15 20.5049 8.15C19.68 8.15 18.8845 8.3075 18.1577 8.591L20.5049 5ZM12 10.25L16.0855 9.8825C15.4962 10.418 14.9659 11.069 14.5534 11.825C14.1213 12.602 13.8758 13.4 13.7383 14.2295L12 10.25ZM12.0196 20.75L13.7481 16.7915C13.8856 17.6 14.1508 18.419 14.5633 19.175C14.9757 19.952 15.5061 20.603 16.0855 21.1385L12.0196 20.75ZM29 10.25L27.2617 14.2295C27.1242 13.4 26.859 12.5915 26.4466 11.825C26.0341 11.069 25.5136 10.4075 24.9243 9.872L29 10.25ZM28.9902 20.75L24.9243 21.128C25.5038 20.5925 26.0243 19.931 26.4367 19.175C26.8492 18.4085 27.1144 17.6 27.2519 16.7705L28.9902 20.75ZM20.5049 26L18.1381 22.388C18.8648 22.6715 19.6603 22.85 20.5049 22.85C21.3102 22.85 22.1057 22.6715 22.8325 22.388L20.5049 26Z" fill="white"/>
<path d="M46 15.5C45.9999 17.1486 46.398 18.774 47.162 20.2447C47.926 21.7154 49.0346 22.99 50.3978 23.9653C51.7611 24.9406 53.3407 25.5893 55.0089 25.8588C56.6771 26.1283 58.3869 26.011 60 25.5164C57.8134 24.8464 55.9031 23.5138 54.5469 21.7124C53.1907 19.9109 52.4595 17.7346 52.4595 15.5C52.4595 13.2654 53.1907 11.0891 54.5469 9.28764C55.9031 7.48618 57.8134 6.15356 60 5.48361C58.3869 4.98904 56.6771 4.87174 55.0089 5.14121C53.3407 5.41069 51.7611 6.05935 50.3978 7.0347C49.0346 8.01004 47.926 9.28465 47.162 10.7553C46.398 12.226 45.9999 13.8514 46 15.5Z" fill="black"/>
</svg>
